<svg xmlns="http://www.w3.org/2000/svg" width="900" height="560" viewBox="0 0 900 560" role="img" aria-label="Skullcrusher">
  <defs>
    <linearGradient id="g" x1="0" x2="1" y1="0" y2="1"><stop offset="0" stop-color="#2a1d00"/><stop offset="1" stop-color="#101014"/></linearGradient>
    <filter id="shadow" x="-20%" y="-20%" width="140%" height="140%"><feDropShadow dx="0" dy="12" stdDeviation="12" flood-color="#000" flood-opacity=".35"/></filter>
    <marker id="arr" viewBox="0 0 10 10" refX="7" refY="5" markerWidth="7" markerHeight="7" orient="auto-start-reverse"><path d="M0 0 L10 5 L0 10Z" fill="#fbbf24"/></marker>
  </defs>
  <rect width="900" height="560" fill="url(#g)"/>
  <rect x="34" y="30" width="832" height="500" rx="44" fill="rgba(255,255,255,.055)" stroke="rgba(255,255,255,.15)"/>
  <text x="72" y="76" fill="#fbbf24" font-family="Arial, sans-serif" font-size="17" font-weight="900" letter-spacing="5">GYMBADDIES</text>
  <text x="450" y="494" text-anchor="middle" fill="#fff" font-family="Arial, sans-serif" font-size="38" font-weight="900">Skullcrusher</text>
  <text x="450" y="532" text-anchor="middle" fill="#fbbf24" font-family="Arial, sans-serif" font-size="16" font-weight="900" letter-spacing="5">ARME</text>

  <g filter="url(#shadow)" stroke-linecap="round" stroke-linejoin="round" transform="translate(0 -5) scale(1.0)">
    <circle cx="450" cy="118" r="33" fill="none" stroke="#eeeeee" stroke-width="13"/>
    <path d="M450 154 L450 292" stroke="#eeeeee" stroke-width="18"/>
    <path d="M396 190 C426 174 474 174 504 190 L492 284 C472 308 428 308 408 284Z" fill="rgba(245,245,245,.16)" stroke="rgba(255,255,255,.55)" stroke-width="6"/>
    <path d="M410 298 L382 410" stroke="#eeeeee" stroke-width="17"/>
    <path d="M490 298 L518 410" stroke="#eeeeee" stroke-width="17"/>
    <path d="M382 410 L350 426 M518 410 L550 426" stroke="#eeeeee" stroke-width="13"/>
  </g>
  <g filter="url(#shadow)">
    <path d="M340 236 C308 262 288 298 280 334" stroke="#fbbf24" stroke-width="25" fill="none"/><path d="M560 236 C592 262 612 298 620 334" stroke="#fbbf24" stroke-width="25" fill="none"/>
    
  <g stroke="rgba(255,255,255,.66)" stroke-width="10" fill="none" stroke-linecap="round"><path d="M450 70 V170"/><path d="M410 170 H490"/><path d="M415 170 L384 252 M485 170 L516 252"/></g>
  <path d="M386 204 L370 304" stroke="#eee" stroke-width="18"/><path d="M514 204 L530 304" stroke="#eee" stroke-width="18"/>
  <path d="M382 228 L370 306 M518 228 L530 306" stroke="#fbbf24" stroke-width="11" marker-end="url(#arr)"/>

  </g>
</svg>
